<?xml version="1.0" encoding="UTF-8" standalone="no"?>
<svg
   xmlns:dc="http://purl.org/dc/elements/1.1/"
   xmlns:cc="http://creativecommons.org/ns#"
   xmlns:rdf="http://www.w3.org/1999/02/22-rdf-syntax-ns#"
   xmlns:svg="http://www.w3.org/2000/svg"
   xmlns="http://www.w3.org/2000/svg"
   xmlns:sodipodi="http://sodipodi.sourceforge.net/DTD/sodipodi-0.dtd"
   xmlns:inkscape="http://www.inkscape.org/namespaces/inkscape"
   preserveAspectRatio="xMinYMin meet"
   width="100%"
   height="100%"
   viewBox="0 0 470.95431 387.60857"
   version="1.1"
   id="svg2"
   inkscape:version="0.48.2 r9819"
   sodipodi:docname="test2.svg">
  <metadata
     id="metadata364">
    <rdf:RDF>
      <cc:Work
         rdf:about="">
        <dc:format>image/svg+xml</dc:format>
        <dc:type
           rdf:resource="http://purl.org/dc/dcmitype/StillImage" />
      </cc:Work>
    </rdf:RDF>
  </metadata>
  <defs
     id="defs362" />
  <sodipodi:namedview
     pagecolor="#ffffff"
     bordercolor="#666666"
     borderopacity="1"
     objecttolerance="10"
     gridtolerance="10"
     guidetolerance="10"
     inkscape:pageopacity="0"
     inkscape:pageshadow="2"
     inkscape:window-width="700"
     inkscape:window-height="480"
     id="namedview360"
     showgrid="false"
     units="cm"
     fit-margin-right="0.5"
     fit-margin-top="0.5"
     fit-margin-bottom="0.5"
     fit-margin-left="0.5"
     inkscape:zoom="0.55619048"
     inkscape:cx="240.30028"
     inkscape:cy="202.23554"
     inkscape:window-x="0"
     inkscape:window-y="95"
     inkscape:window-maximized="0"
     inkscape:current-layer="topgroup" />
  <desc
     id="desc4">Matlab Figure Converted by PLOT2SVG written by Juerg Schwizer</desc>
  <g
     id="topgroup"
     transform="translate(-22.199724,-11.501965)">
    <g
       id="ID000000">
      <clipPath
         id="ID000001">
        <rect
           x="68.25"
           y="29.531"
           width="406.875"
           height="320.90601"
           id="rect11" />
      </clipPath>
      <polygon
         points="475.125,350.438 475.125,29.531 68.25,29.531 68.25,350.438 "
         id="polygon13"
         style="fill:#ffffff;fill-opacity:1;stroke:none" />
      <polygon
         points="475.125,29.531 475.125,29.531 68.25,29.531 68.25,29.531 "
         id="polygon15"
         style="fill:#ffffff;fill-opacity:1;stroke:none" />
      <polygon
         points="68.25,350.437 68.25,29.531 68.25,29.531 68.25,350.438 "
         id="polygon17"
         style="fill:#ffffff;fill-opacity:1;stroke:none" />
      <g
         id="g19">
        <g
           id="ID000002"
           clip-path="url(#ID000001)">
          <g
             id="ID000003"
             clip-path="url(#ID000001)">
            <polyline
               points="157.648,350.438 158.122,349.877 158.737,349.149 159.756,347.943 159.827,347.860 160.916,346.571 161.390,346.010 162.005,345.282 163.024,344.077 163.095,343.994 164.184,342.705 164.658,342.144 165.273,341.416 166.292,340.211 166.363,340.127 167.452,338.838 167.926,338.278 168.541,337.550 169.560,336.344 169.631,336.261 170.720,334.972 171.194,334.411 171.810,333.683 172.828,332.478 172.899,332.395 173.988,331.106 174.462,330.545 175.078,329.817 176.096,328.612 176.167,328.528 177.256,327.239 177.730,326.679 178.346,325.951 179.364,324.745 179.435,324.662 180.524,323.373 180.998,322.812 181.614,322.084 182.633,320.879 182.703,320.796 183.792,319.507 184.267,318.946 184.882,318.218 185.901,317.013 185.971,316.929 187.061,315.640 187.535,315.080 188.150,314.352 189.169,313.146 189.239,313.063 190.329,311.774 190.803,311.213 191.418,310.485 192.437,309.280 192.507,309.197 193.597,307.908 194.071,307.347 194.686,306.619 195.705,305.414 195.775,305.330 196.865,304.041 197.339,303.481 197.954,302.753 198.973,301.547 199.043,301.464 200.133,300.175 200.607,299.614 201.222,298.886 202.241,297.681 202.312,297.598 203.401,296.309 203.875,295.748 204.490,295.020 205.509,293.815 205.580,293.731 206.669,292.442 207.143,291.882 207.758,291.154 208.777,289.948 208.848,289.865 209.937,288.576 210.411,288.015 211.026,287.287 212.045,286.082 212.116,285.998 213.205,284.710 213.679,284.149 214.294,283.421 215.313,282.216 215.384,282.132 216.473,280.843 216.947,280.282 217.563,279.555 218.581,278.349 218.652,278.266 219.741,276.977 220.215,276.416 220.831,275.688 221.849,274.483 221.920,274.399 223.009,273.111 223.483,272.550 224.099,271.822 225.117,270.617 225.188,270.533 226.277,269.244 226.752,268.683 227.367,267.956 228.386,266.750 228.456,266.667 229.545,265.378 230.020,264.817 230.635,264.089 231.654,262.884 231.724,262.800 232.814,261.512 233.288,260.951 233.903,260.223 234.922,259.018 234.992,258.934 236.082,257.645 236.556,257.084 237.171,256.357 238.190,255.151 238.260,255.068 239.350,253.779 239.824,253.218 240.439,252.490 241.458,251.285 241.528,251.201 242.618,249.913 243.092,249.352 243.707,248.624 244.726,247.419 244.796,247.335 245.886,246.046 246.360,245.485 246.975,244.758 247.994,243.552 248.065,243.469 249.154,242.180 249.628,241.619 250.243,240.891 251.262,239.686 251.333,239.602 252.422,238.314 252.896,237.753 253.511,237.025 254.530,235.820 254.601,235.736 255.690,234.447 256.164,233.886 256.779,233.159 257.798,231.953 257.869,231.870 258.958,230.581 259.432,230.020 260.047,229.292 261.066,228.087 261.137,228.003 262.226,226.715 262.700,226.154 263.316,225.426 264.334,224.221 264.405,224.137 265.494,222.848 265.968,222.287 266.584,221.559 267.602,220.354 267.673,220.271 268.762,218.982 269.236,218.421 269.852,217.693 270.870,216.488 270.941,216.404 272.030,215.116 272.505,214.555 273.120,213.827 274.139,212.622 274.209,212.538 275.298,211.249 275.773,210.688 276.388,209.960 277.407,208.755 277.477,208.672 278.567,207.383 279.041,206.822 279.656,206.094 280.675,204.889 280.745,204.805 281.835,203.517 282.309,202.956 282.924,202.228 283.943,201.023 284.013,200.939 285.103,199.650 285.577,199.089 286.192,198.361 287.211,197.156 287.281,197.073 288.371,195.784 288.845,195.223 289.460,194.495 290.479,193.290 290.549,193.206 291.639,191.918 292.113,191.357 292.728,190.629 293.747,189.423 293.818,189.340 294.907,188.051 295.381,187.490 295.996,186.762 297.015,185.557 297.086,185.474 298.175,184.185 298.649,183.624 299.264,182.896 300.283,181.691 300.354,181.607 301.443,180.319 301.917,179.758 302.532,179.030 303.551,177.824 303.622,177.741 304.711,176.452 305.185,175.891 305.800,175.163 306.819,173.958 306.890,173.875 307.979,172.586 308.453,172.025 309.069,171.297 310.087,170.092 310.158,170.008 311.247,168.720 311.721,168.159 312.337,167.431 313.355,166.225 313.426,166.142 314.515,164.853 314.989,164.292 315.605,163.564 316.623,162.359 316.694,162.276 317.783,160.987 318.258,160.426 318.873,159.698 319.892,158.493 319.962,158.409 321.052,157.120 321.526,156.560 322.141,155.832 323.160,154.626 323.230,154.543 324.320,153.254 324.794,152.693 325.409,151.965 326.428,150.760 326.498,150.677 327.588,149.388 328.062,148.827 328.677,148.099 329.696,146.894 329.766,146.810 330.856,145.521 331.330,144.961 331.945,144.233 332.964,143.027 333.034,142.944 334.124,141.655 334.598,141.094 335.213,140.366 336.232,139.161 336.303,139.078 337.392,137.789 337.866,137.228 338.481,136.500 339.500,135.295 339.571,135.211 340.660,133.922 341.134,133.362 341.749,132.634 342.768,131.428 342.839,131.345 343.928,130.056 344.402,129.495 345.017,128.767 346.036,127.562 346.107,127.479 347.196,126.190 347.670,125.629 348.285,124.901 349.304,123.696 349.375,123.612 350.464,122.323 350.938,121.763 351.554,121.035 352.572,119.829 352.643,119.746 353.732,118.457 354.206,117.896 354.822,117.168 355.840,115.963 355.911,115.880 357.000,114.591 357.474,114.030 358.090,113.302 359.108,112.097 359.179,112.013 360.268,110.724 360.742,110.164 361.358,109.436 362.377,108.230 362.447,108.147 363.536,106.858 364.011,106.297 364.626,105.569 365.645,104.364 365.715,104.280 366.805,102.992 367.279,102.431 367.894,101.703 368.913,100.498 368.983,100.414 370.073,99.125 370.547,98.564 371.162,97.837 372.181,96.631 372.251,96.548 373.341,95.259 373.815,94.698 374.430,93.970 375.449,92.765 375.519,92.681 376.609,91.393 377.083,90.832 377.698,90.104 378.717,88.899 378.787,88.815 379.877,87.526 380.351,86.965 380.966,86.238 381.985,85.032 382.056,84.949 383.145,83.660 383.619,83.099 384.234,82.371 385.253,81.166 385.324,81.082 386.413,79.794 386.887,79.233 387.502,78.505 388.521,77.300 388.592,77.216 389.681,75.927 390.155,75.366 390.770,74.639 391.789,73.433 391.860,73.350 392.949,72.061 393.423,71.500 394.038,70.772 395.057,69.567 395.128,69.483 396.217,68.195 396.691,67.634 397.307,66.906 398.325,65.701 398.396,65.617 399.485,64.328 399.959,63.767 400.575,63.040 401.593,61.834 401.664,61.751 402.753,60.462 403.227,59.901 403.843,59.173 404.861,57.968 404.932,57.884 406.021,56.596 406.495,56.035 407.111,55.307 408.130,54.102 408.200,54.018 409.289,52.729 409.764,52.168 410.379,51.441 411.398,50.235 411.468,50.152 412.558,48.863 413.032,48.302 413.647,47.574 414.666,46.369 414.736,46.285 415.826,44.997 416.300,44.436 416.915,43.708 417.934,42.503 418.004,42.419 419.094,41.130 419.568,40.569 420.183,39.841 421.202,38.636 421.272,38.553 422.362,37.264 422.836,36.703 423.451,35.975 424.470,34.770 424.540,34.686 425.630,33.398 426.104,32.837 426.719,32.109 427.738,30.904 427.809,30.820 428.898,29.531 "
               id="polyline23"
               style="fill:none;stroke:#00008f;stroke-width:0.5pt;stroke-opacity:1;stroke-dasharray:none" />
          </g>
        </g>
        <g
           id="ID000004">
          <g
             transform="translate(271.219,381.394)"
             id="g26">
            <g
               id="g28">
              <text
                 x="0"
                 y="0"
                 font-size="9pt"
                 id="text30"
                 style="font-size:11.25px;text-anchor:middle;fill:#000000;font-family:Helvetica">
                <tspan
                   id="tspan32">x</tspan>
                <tspan
                   id="tspan34" />
              </text>
            </g>
          </g>
        </g>
        <g
           id="ID000005">
          <g
             transform="translate(45.75,191.392)"
             id="g37">
            <g
               transform="matrix(0,-1,1,0,0,0)"
               id="g39">
              <text
                 x="0"
                 y="0"
                 font-size="9pt"
                 id="text41"
                 style="font-size:11.25px;text-anchor:middle;fill:#000000;font-family:Helvetica">
                <tspan
                   id="tspan43">y</tspan>
                <tspan
                   id="tspan45" />
              </text>
            </g>
          </g>
        </g>
        <g
           id="ID000006" />
        <g
           id="ID000007"
           clip-path="url(#ID000001)">
          <g
             id="ID000008"
             clip-path="url(#ID000001)">
            <polyline
               points="382.575,350.438 381.985,350.127 380.351,349.268 380.124,349.149 378.717,348.409 377.673,347.860 377.083,347.550 375.449,346.691 375.222,346.571 373.815,345.831 372.771,345.282 372.181,344.972 370.547,344.113 370.319,343.994 368.913,343.254 367.868,342.705 367.279,342.395 365.645,341.535 365.417,341.416 364.011,340.676 362.966,340.127 362.377,339.817 360.742,338.958 360.515,338.838 359.108,338.099 358.064,337.550 357.474,337.240 355.840,336.380 355.613,336.261 354.206,335.521 353.162,334.972 352.572,334.662 350.938,333.803 350.711,333.683 349.304,332.944 348.260,332.395 347.670,332.084 346.036,331.225 345.809,331.106 344.402,330.366 343.358,329.817 342.768,329.507 341.134,328.648 340.907,328.528 339.500,327.788 338.456,327.239 337.866,326.929 336.232,326.070 336.005,325.951 334.598,325.211 333.554,324.662 332.964,324.352 331.330,323.492 331.103,323.373 329.696,322.633 328.652,322.084 328.062,321.774 326.428,320.915 326.201,320.796 324.794,320.056 323.750,319.507 323.160,319.197 321.526,318.337 321.299,318.218 319.892,317.478 318.848,316.929 318.258,316.619 316.623,315.760 316.397,315.640 314.989,314.901 313.946,314.352 313.355,314.041 311.721,313.182 311.494,313.063 310.087,312.323 309.043,311.774 308.453,311.464 306.819,310.605 306.592,310.485 305.185,309.745 304.141,309.197 303.551,308.886 301.917,308.027 301.690,307.908 300.283,307.168 299.239,306.619 298.649,306.309 297.015,305.449 296.788,305.330 295.381,304.590 294.337,304.041 293.747,303.731 292.113,302.872 291.886,302.753 290.479,302.013 289.435,301.464 288.845,301.154 287.211,300.294 286.984,300.175 285.577,299.435 284.533,298.886 283.943,298.576 282.309,297.717 282.082,297.598 280.675,296.858 279.631,296.309 279.041,295.998 277.407,295.139 277.180,295.020 275.773,294.280 274.729,293.731 274.139,293.421 272.505,292.562 272.278,292.442 270.870,291.702 269.827,291.154 269.236,290.843 267.602,289.984 267.376,289.865 265.968,289.125 264.925,288.576 264.334,288.266 262.700,287.406 262.474,287.287 261.066,286.547 260.023,285.998 259.432,285.688 257.798,284.829 257.572,284.710 256.164,283.970 255.121,283.421 254.530,283.111 252.896,282.251 252.669,282.132 251.262,281.392 250.218,280.843 249.628,280.533 247.994,279.674 247.767,279.555 246.360,278.815 245.316,278.266 244.726,277.955 243.092,277.096 242.865,276.977 241.458,276.237 240.414,275.688 239.824,275.378 238.190,274.519 237.963,274.399 236.556,273.659 235.512,273.111 234.922,272.800 233.288,271.941 233.061,271.822 231.654,271.082 230.610,270.533 230.020,270.223 228.386,269.363 228.159,269.244 226.752,268.504 225.708,267.956 225.117,267.645 223.483,266.786 223.257,266.667 221.849,265.927 220.806,265.378 220.215,265.067 218.581,264.208 218.355,264.089 216.947,263.349 215.904,262.800 215.313,262.490 213.679,261.631 213.453,261.512 212.045,260.772 211.002,260.223 210.411,259.912 208.777,259.053 208.551,258.934 207.143,258.194 206.100,257.645 205.509,257.335 203.875,256.476 203.649,256.357 202.241,255.616 201.198,255.068 200.607,254.757 198.973,253.898 198.747,253.779 197.339,253.039 196.296,252.490 195.705,252.180 194.071,251.320 193.844,251.201 192.437,250.461 191.393,249.913 190.803,249.602 189.169,248.743 188.942,248.624 187.535,247.884 186.491,247.335 185.901,247.024 184.267,246.165 184.040,246.046 182.633,245.306 181.589,244.758 180.998,244.447 179.364,243.588 179.138,243.469 177.730,242.729 176.687,242.180 176.096,241.869 174.462,241.010 174.236,240.891 172.828,240.151 171.785,239.602 171.194,239.292 169.560,238.433 169.334,238.314 167.926,237.573 166.883,237.025 166.292,236.714 164.658,235.855 164.432,235.736 163.024,234.996 161.981,234.447 161.390,234.137 159.756,233.277 159.530,233.159 158.122,232.418 157.079,231.870 156.488,231.559 154.854,230.700 154.628,230.581 153.220,229.841 152.177,229.292 151.586,228.981 149.952,228.122 149.726,228.003 148.318,227.263 147.275,226.715 146.684,226.404 145.050,225.545 144.824,225.426 143.416,224.686 142.373,224.137 141.782,223.826 140.148,222.967 139.922,222.848 138.514,222.108 137.470,221.559 136.880,221.249 135.245,220.390 135.019,220.271 133.611,219.530 132.568,218.982 131.977,218.671 130.343,217.812 130.117,217.693 128.709,216.953 127.666,216.404 127.075,216.094 125.441,215.234 125.215,215.116 123.807,214.375 122.764,213.827 122.173,213.516 120.539,212.657 120.313,212.538 118.905,211.798 117.862,211.249 117.271,210.938 115.637,210.079 115.411,209.960 114.003,209.220 112.960,208.672 112.369,208.361 110.735,207.502 110.509,207.383 109.101,206.642 108.058,206.094 107.467,205.783 105.833,204.924 105.607,204.805 104.199,204.065 103.156,203.517 102.565,203.206 100.931,202.347 100.705,202.228 99.297,201.487 98.254,200.939 97.663,200.628 96.029,199.769 95.803,199.650 94.395,198.910 93.352,198.361 92.761,198.051 91.127,197.191 90.901,197.073 89.492,196.332 88.450,195.784 87.858,195.473 86.224,194.614 85.999,194.495 84.590,193.755 83.548,193.206 82.956,192.895 81.322,192.036 81.097,191.918 79.688,191.177 78.645,190.629 78.054,190.318 76.420,189.459 76.194,189.340 74.786,188.599 73.743,188.051 73.152,187.740 71.518,186.881 71.292,186.762 69.884,186.022 68.841,185.474 68.250,185.163 "
               id="polyline50"
               style="fill:none;stroke:#00008f;stroke-width:0.5pt;stroke-opacity:1;stroke-dasharray:none" />
          </g>
        </g>
        <g
           id="ID000009"
           clip-path="url(#ID000001)">
          <g
             id="ID000010"
             clip-path="url(#ID000001)">
            <polyline
               points="180.491,166.170 174.890,172.813 170.064,184.261 170.064,195.708 174.890,207.156 180.491,213.798 185.218,218.603 194.522,224.908 203.628,230.051 208.552,232.136 222.582,236.890 236.612,240.456 242.765,241.498 250.642,242.566 264.672,243.517 278.703,243.517 292.733,242.566 300.610,241.498 306.763,240.456 320.793,236.890 334.823,232.136 339.747,230.051 348.853,224.908 358.157,218.603 362.884,213.798 368.485,207.156 373.311,195.708 373.311,184.261 368.485,172.813 362.884,166.170 358.157,161.365 348.853,155.061 339.747,149.918 334.823,147.832 320.793,143.078 306.763,139.513 300.610,138.470 292.733,137.403 278.703,136.452 264.672,136.452 250.642,137.403 242.765,138.470 236.612,139.513 222.582,143.078 208.552,147.832 203.628,149.918 194.522,155.061 185.218,161.365 180.491,166.170 "
               id="polyline54"
               style="fill:none;stroke:#0000ff;stroke-width:0.5pt;stroke-opacity:1;stroke-dasharray:none" />
          </g>
          <g
             id="ID000011"
             clip-path="url(#ID000001)">
            <polyline
               points="124.371,167.869 121.718,172.813 118.646,184.261 118.646,195.708 121.718,207.156 124.371,212.100 128.209,218.603 138.344,230.051 138.401,230.099 152.431,240.795 153.468,241.498 166.461,248.543 175.744,252.946 180.491,254.823 194.522,259.577 208.552,263.539 212.337,264.394 222.582,266.377 236.612,268.415 250.642,269.773 264.672,270.452 278.703,270.452 292.733,269.773 306.763,268.415 320.793,266.377 331.038,264.394 334.823,263.539 348.853,259.577 362.884,254.823 367.631,252.946 376.914,248.543 389.907,241.498 390.944,240.795 404.974,230.099 405.031,230.051 415.166,218.603 419.004,212.100 421.657,207.156 424.729,195.708 424.729,184.261 421.657,172.813 419.004,167.869 415.166,161.365 405.031,149.918 404.974,149.870 390.944,139.173 389.907,138.470 376.914,131.426 367.631,127.023 362.884,125.146 348.853,120.392 334.823,116.430 331.038,115.575 320.793,113.591 306.763,111.554 292.733,110.196 278.703,109.516 264.672,109.516 250.642,110.196 236.612,111.554 222.582,113.591 212.337,115.575 208.552,116.430 194.522,120.392 180.491,125.146 175.744,127.023 166.461,131.426 153.468,138.470 152.431,139.173 138.401,149.870 138.344,149.918 128.209,161.365 124.371,167.869 "
               id="polyline57"
               style="fill:none;stroke:#005fff;stroke-width:0.5pt;stroke-opacity:1;stroke-dasharray:none" />
          </g>
          <g
             id="ID000012"
             clip-path="url(#ID000001)">
            <polyline
               points="82.280,175.828 80.503,184.261 80.503,195.708 82.280,204.140 82.965,207.156 88.162,218.603 95.959,230.051 96.310,230.438 107.191,241.498 110.341,244.060 122.261,252.946 124.371,254.257 138.401,262.180 142.756,264.394 152.431,268.609 166.461,274.042 171.771,275.841 180.491,278.427 194.522,281.992 208.552,284.964 222.277,287.289 222.582,287.335 236.612,288.919 250.642,289.976 264.672,290.504 278.703,290.504 292.733,289.976 306.763,288.919 320.793,287.335 321.098,287.289 334.823,284.964 348.853,281.992 362.884,278.427 371.604,275.841 376.914,274.042 390.944,268.609 400.619,264.394 404.974,262.180 419.004,254.257 421.114,252.946 433.034,244.060 436.184,241.498 447.065,230.438 447.416,230.051 455.213,218.603 460.410,207.156 461.095,204.140 462.872,195.708 462.872,184.261 461.095,175.828 460.410,172.813 455.213,161.365 447.416,149.918 447.065,149.531 436.184,138.470 433.034,135.909 421.114,127.023 419.004,125.712 404.974,117.789 400.619,115.575 390.944,111.360 376.914,105.927 371.604,104.128 362.884,101.542 348.853,97.977 334.823,95.005 321.098,92.680 320.793,92.634 306.763,91.049 292.733,89.993 278.703,89.465 264.672,89.465 250.642,89.993 236.612,91.049 222.582,92.634 222.277,92.680 208.552,95.005 194.522,97.977 180.491,101.542 171.771,104.128 166.461,105.927 152.431,111.360 142.756,115.575 138.401,117.789 124.371,125.712 122.261,127.023 110.341,135.909 107.191,138.470 96.310,149.531 95.959,149.918 88.162,161.365 82.965,172.813 82.280,175.828 "
               id="polyline60"
               style="fill:none;stroke:#00bfff;stroke-width:0.5pt;stroke-opacity:1;stroke-dasharray:none" />
          </g>
          <g
             id="ID000013"
             clip-path="url(#ID000001)">
            <polyline
               points="68.250,142.060 71.277,138.470 82.280,128.031 83.424,127.023 96.310,117.562 99.243,115.575 110.341,109.129 119.733,104.128 124.371,101.967 138.401,96.024 147.173,92.680 152.431,90.898 166.461,86.673 180.491,82.975 188.206,81.232 194.522,79.948 208.552,77.571 222.582,75.670 236.612,74.243 250.642,73.293 264.672,72.817 278.703,72.817 292.733,73.293 306.763,74.243 320.793,75.670 334.823,77.571 348.853,79.948 355.169,81.232 362.884,82.975 376.914,86.673 390.944,90.898 396.202,92.680 404.974,96.024 419.004,101.967 423.642,104.128 433.034,109.129 444.132,115.575 447.065,117.562 459.951,127.023 461.095,128.031 472.098,138.470 475.125,142.060 "
               id="polyline63"
               style="fill:none;stroke:#2fffcf;stroke-width:0.5pt;stroke-opacity:1;stroke-dasharray:none" />
          </g>
          <g
             id="ID000014"
             clip-path="url(#ID000001)">
            <polyline
               points="68.250,237.909 71.277,241.498 82.280,251.938 83.424,252.946 96.310,262.407 99.243,264.394 110.341,270.840 119.733,275.841 124.371,278.002 138.401,283.945 147.173,287.289 152.431,289.070 166.461,293.296 180.491,296.994 188.206,298.736 194.522,300.020 208.552,302.397 222.582,304.299 236.612,305.725 250.642,306.676 264.672,307.152 278.703,307.152 292.733,306.676 306.763,305.725 320.793,304.299 334.823,302.397 348.853,300.020 355.169,298.736 362.884,296.994 376.914,293.296 390.944,289.070 396.202,287.289 404.974,283.945 419.004,278.002 423.642,275.841 433.034,270.840 444.132,264.394 447.065,262.407 459.951,252.946 461.095,251.938 472.098,241.498 475.125,237.909 "
               id="polyline66"
               style="fill:none;stroke:#2fffcf;stroke-width:0.5pt;stroke-opacity:1;stroke-dasharray:none" />
          </g>
          <g
             id="ID000015"
             clip-path="url(#ID000001)">
            <polyline
               points="68.250,113.010 81.356,104.128 82.280,103.580 96.310,95.854 102.556,92.680 110.341,89.163 124.371,83.352 130.002,81.232 138.401,78.386 152.431,74.108 166.461,70.304 168.652,69.785 180.491,67.232 194.522,64.639 208.552,62.478 222.582,60.749 236.612,59.453 250.642,58.588 258.788,58.337 264.672,58.171 278.703,58.171 284.587,58.337 292.733,58.588 306.763,59.453 320.793,60.749 334.823,62.478 348.853,64.639 362.884,67.232 374.723,69.785 376.914,70.304 390.944,74.108 404.974,78.386 413.373,81.232 419.004,83.352 433.034,89.163 440.819,92.680 447.065,95.854 461.095,103.580 462.019,104.128 475.125,113.010 "
               id="polyline69"
               style="fill:none;stroke:#8fff6f;stroke-width:0.5pt;stroke-opacity:1;stroke-dasharray:none" />
          </g>
          <g
             id="ID000016"
             clip-path="url(#ID000001)">
            <polyline
               points="68.250,266.959 81.356,275.841 82.280,276.389 96.310,284.114 102.556,287.289 110.341,290.806 124.371,296.616 130.002,298.736 138.401,301.582 152.431,305.861 166.461,309.664 168.652,310.184 180.491,312.737 194.522,315.330 208.552,317.491 222.582,319.220 236.612,320.516 250.642,321.381 258.788,321.632 264.672,321.798 278.703,321.798 284.587,321.632 292.733,321.381 306.763,320.516 320.793,319.220 334.823,317.491 348.853,315.330 362.884,312.737 374.723,310.184 376.914,309.664 390.944,305.861 404.974,301.582 413.373,298.736 419.004,296.616 433.034,290.806 440.819,287.289 447.065,284.114 461.095,276.389 462.019,275.841 475.125,266.959 "
               id="polyline72"
               style="fill:none;stroke:#8fff6f;stroke-width:0.5pt;stroke-opacity:1;stroke-dasharray:none" />
          </g>
          <g
             id="ID000017"
             clip-path="url(#ID000001)">
            <polyline
               points="68.250,92.181 82.280,84.786 89.541,81.232 96.310,78.251 110.341,72.546 117.748,69.785 124.371,67.541 138.401,63.219 152.431,59.329 156.456,58.337 166.461,56.077 180.491,53.304 194.522,50.927 208.552,48.946 222.582,47.361 228.150,46.890 236.612,46.228 250.642,45.497 264.672,45.131 278.703,45.131 292.733,45.497 306.763,46.228 315.225,46.890 320.793,47.361 334.823,48.946 348.853,50.927 362.884,53.304 376.914,56.077 386.919,58.337 390.944,59.329 404.974,63.219 419.004,67.541 425.627,69.785 433.034,72.546 447.065,78.251 453.834,81.232 461.095,84.786 475.125,92.181 "
               id="polyline75"
               style="fill:none;stroke:#efff0f;stroke-width:0.5pt;stroke-opacity:1;stroke-dasharray:none" />
          </g>
          <g
             id="ID000018"
             clip-path="url(#ID000001)">
            <polyline
               points="68.250,287.787 82.280,295.183 89.541,298.736 96.310,301.718 110.341,307.423 117.748,310.184 124.371,312.428 138.401,316.750 152.431,320.640 156.456,321.632 166.461,323.892 180.491,326.665 194.522,329.042 208.552,331.023 222.582,332.607 228.150,333.079 236.612,333.741 250.642,334.472 264.672,334.838 278.703,334.838 292.733,334.472 306.763,333.741 315.225,333.079 320.793,332.607 334.823,331.023 348.853,329.042 362.884,326.665 376.914,323.892 386.919,321.632 390.944,320.640 404.974,316.750 419.004,312.428 425.627,310.184 433.034,307.423 447.065,301.718 453.834,298.736 461.095,295.183 475.125,287.787 "
               id="polyline78"
               style="fill:none;stroke:#efff0f;stroke-width:0.5pt;stroke-opacity:1;stroke-dasharray:none" />
          </g>
          <g
             id="ID000019"
             clip-path="url(#ID000001)">
            <polyline
               points="68.250,75.262 79.797,69.785 82.280,68.714 96.310,63.095 109.182,58.337 110.341,57.945 124.371,53.587 138.401,49.625 149.165,46.890 152.431,46.123 166.461,43.198 180.491,40.638 194.522,38.444 208.552,36.615 219.805,35.442 222.582,35.173 236.612,34.155 250.642,33.475 264.672,33.136 278.703,33.136 292.733,33.475 306.763,34.155 320.793,35.173 323.570,35.442 334.823,36.615 348.853,38.444 362.884,40.638 376.914,43.198 390.944,46.123 394.210,46.890 404.974,49.625 419.004,53.587 433.034,57.945 434.193,58.337 447.065,63.095 461.095,68.714 463.578,69.785 475.125,75.262 "
               id="polyline81"
               style="fill:none;stroke:#ff9f00;stroke-width:0.5pt;stroke-opacity:1;stroke-dasharray:none" />
          </g>
          <g
             id="ID000020"
             clip-path="url(#ID000001)">
            <polyline
               points="68.250,304.706 79.797,310.184 82.280,311.255 96.310,316.873 109.182,321.632 110.341,322.024 124.371,326.382 138.401,330.344 149.165,333.079 152.431,333.845 166.461,336.771 180.491,339.331 194.522,341.525 208.552,343.353 219.805,344.527 222.582,344.795 236.612,345.814 250.642,346.493 264.672,346.833 278.703,346.833 292.733,346.493 306.763,345.814 320.793,344.795 323.570,344.527 334.823,343.353 348.853,341.525 362.884,339.331 376.914,336.771 390.944,333.845 394.210,333.079 404.974,330.344 419.004,326.382 433.034,322.024 434.193,321.632 447.065,316.873 461.095,311.255 463.578,310.184 475.125,304.706 "
               id="polyline84"
               style="fill:none;stroke:#ff9f00;stroke-width:0.5pt;stroke-opacity:1;stroke-dasharray:none" />
          </g>
          <g
             id="ID000021"
             clip-path="url(#ID000001)">
            <polyline
               points="221.299,23.994 208.552,25.229 194.522,26.926 180.491,28.964 166.461,31.341 152.431,34.058 146.075,35.442 138.401,37.242 124.371,40.899 110.341,44.922 104.050,46.890 96.310,49.512 82.280,54.662 72.984,58.337 68.250,60.379 "
               id="polyline87"
               style="fill:none;stroke:#ff3f00;stroke-width:0.5pt;stroke-opacity:1;stroke-dasharray:none" />
          </g>
          <g
             id="ID000022"
             clip-path="url(#ID000001)">
            <polyline
               points="221.299,355.974 208.552,354.740 194.522,353.042 180.491,351.005 166.461,348.628 152.431,345.911 146.075,344.527 138.401,342.726 124.371,339.069 110.341,335.047 104.050,333.079 96.310,330.457 82.280,325.306 72.984,321.632 68.250,319.590 "
               id="polyline90"
               style="fill:none;stroke:#ff3f00;stroke-width:0.5pt;stroke-opacity:1;stroke-dasharray:none" />
          </g>
          <g
             id="ID000023"
             clip-path="url(#ID000001)">
            <polyline
               points="322.076,23.994 334.823,25.229 348.853,26.926 362.884,28.964 376.914,31.341 390.944,34.058 397.300,35.442 404.974,37.242 419.004,40.899 433.034,44.922 439.325,46.890 447.065,49.512 461.095,54.662 470.391,58.337 475.125,60.379 "
               id="polyline93"
               style="fill:none;stroke:#ff3f00;stroke-width:0.5pt;stroke-opacity:1;stroke-dasharray:none" />
          </g>
          <g
             id="ID000024"
             clip-path="url(#ID000001)">
            <polyline
               points="322.076,355.974 334.823,354.740 348.853,353.042 362.884,351.005 376.914,348.628 390.944,345.911 397.300,344.527 404.974,342.726 419.004,339.069 433.034,335.047 439.325,333.079 447.065,330.457 461.095,325.306 470.391,321.632 475.125,319.590 "
               id="polyline96"
               style="fill:none;stroke:#ff3f00;stroke-width:0.5pt;stroke-opacity:1;stroke-dasharray:none" />
          </g>
          <g
             id="ID000025"
             clip-path="url(#ID000001)">
            <polyline
               points="146.739,23.994 138.401,25.811 124.371,29.207 110.341,32.942 101.732,35.442 96.310,37.138 82.280,41.892 68.584,46.890 68.250,47.022 "
               id="polyline99"
               style="fill:none;stroke:#df0000;stroke-width:0.5pt;stroke-opacity:1;stroke-dasharray:none" />
          </g>
          <g
             id="ID000026"
             clip-path="url(#ID000001)">
            <polyline
               points="146.739,355.974 138.401,354.158 124.371,350.762 110.341,347.027 101.732,344.527 96.310,342.831 82.280,338.077 68.584,333.079 68.250,332.947 "
               id="polyline102"
               style="fill:none;stroke:#df0000;stroke-width:0.5pt;stroke-opacity:1;stroke-dasharray:none" />
          </g>
          <g
             id="ID000027"
             clip-path="url(#ID000001)">
            <polyline
               points="396.636,23.994 404.974,25.811 419.004,29.207 433.034,32.942 441.643,35.442 447.065,37.138 461.095,41.892 474.791,46.890 475.125,47.022 "
               id="polyline105"
               style="fill:none;stroke:#df0000;stroke-width:0.5pt;stroke-opacity:1;stroke-dasharray:none" />
          </g>
          <g
             id="ID000028"
             clip-path="url(#ID000001)">
            <polyline
               points="396.636,355.974 404.974,354.158 419.004,350.762 433.034,347.027 441.643,344.527 447.065,342.831 461.095,338.077 474.791,333.079 475.125,332.947 "
               id="polyline108"
               style="fill:none;stroke:#df0000;stroke-width:0.5pt;stroke-opacity:1;stroke-dasharray:none" />
          </g>
          <g
             id="ID000029"
             clip-path="url(#ID000001)">
            <polyline
               points="102.230,23.994 96.310,25.714 82.280,30.128 68.250,34.882 "
               id="polyline111"
               style="fill:none;stroke:#7f0000;stroke-width:0.5pt;stroke-opacity:1;stroke-dasharray:none" />
          </g>
          <g
             id="ID000030"
             clip-path="url(#ID000001)">
            <polyline
               points="102.230,355.974 96.310,354.255 82.280,349.840 68.250,345.086 "
               id="polyline114"
               style="fill:none;stroke:#7f0000;stroke-width:0.5pt;stroke-opacity:1;stroke-dasharray:none" />
          </g>
          <g
             id="ID000031"
             clip-path="url(#ID000001)">
            <polyline
               points="441.145,23.994 447.065,25.714 461.095,30.128 475.125,34.882 "
               id="polyline117"
               style="fill:none;stroke:#7f0000;stroke-width:0.5pt;stroke-opacity:1;stroke-dasharray:none" />
          </g>
          <g
             id="ID000032"
             clip-path="url(#ID000001)">
            <polyline
               points="441.145,355.974 447.065,354.255 461.095,349.840 475.125,345.086 "
               id="polyline120"
               style="fill:none;stroke:#7f0000;stroke-width:0.5pt;stroke-opacity:1;stroke-dasharray:none" />
          </g>
        </g>
      </g>
      <g
         id="g122">
        <polyline
           points="77.419,350.438 77.419,346.369 "
           id="polyline124"
           style="fill:none;stroke:#000000;stroke-width:0.5pt;stroke-dasharray:none" />
        <polyline
           points="142.175,350.438 142.175,346.369 "
           id="polyline126"
           style="fill:none;stroke:#000000;stroke-width:0.5pt;stroke-dasharray:none" />
        <polyline
           points="206.931,350.438 206.931,346.369 "
           id="polyline128"
           style="fill:none;stroke:#000000;stroke-width:0.5pt;stroke-dasharray:none" />
        <polyline
           points="271.688,350.438 271.688,346.369 "
           id="polyline130"
           style="fill:none;stroke:#000000;stroke-width:0.5pt;stroke-dasharray:none" />
        <polyline
           points="336.444,350.438 336.444,346.369 "
           id="polyline132"
           style="fill:none;stroke:#000000;stroke-width:0.5pt;stroke-dasharray:none" />
        <polyline
           points="401.200,350.438 401.200,346.369 "
           id="polyline134"
           style="fill:none;stroke:#000000;stroke-width:0.5pt;stroke-dasharray:none" />
        <polyline
           points="465.956,350.438 465.956,346.369 "
           id="polyline136"
           style="fill:none;stroke:#000000;stroke-width:0.5pt;stroke-dasharray:none" />
        <polyline
           points="68.250,350.438 475.125,350.438 "
           id="polyline138"
           style="fill:none;stroke:#000000;stroke-width:0.5pt;stroke-dasharray:none" />
        <polyline
           points="77.419,29.531 77.419,33.600 "
           id="polyline140"
           style="fill:none;stroke:#000000;stroke-width:0.5pt;stroke-dasharray:none" />
        <polyline
           points="142.175,29.531 142.175,33.600 "
           id="polyline142"
           style="fill:none;stroke:#000000;stroke-width:0.5pt;stroke-dasharray:none" />
        <polyline
           points="206.931,29.531 206.931,33.600 "
           id="polyline144"
           style="fill:none;stroke:#000000;stroke-width:0.5pt;stroke-dasharray:none" />
        <polyline
           points="271.688,29.531 271.688,33.600 "
           id="polyline146"
           style="fill:none;stroke:#000000;stroke-width:0.5pt;stroke-dasharray:none" />
        <polyline
           points="336.444,29.531 336.444,33.600 "
           id="polyline148"
           style="fill:none;stroke:#000000;stroke-width:0.5pt;stroke-dasharray:none" />
        <polyline
           points="401.200,29.531 401.200,33.600 "
           id="polyline150"
           style="fill:none;stroke:#000000;stroke-width:0.5pt;stroke-dasharray:none" />
        <polyline
           points="465.956,29.531 465.956,33.600 "
           id="polyline152"
           style="fill:none;stroke:#000000;stroke-width:0.5pt;stroke-dasharray:none" />
        <polyline
           points="68.250,29.531 475.125,29.531 "
           id="polyline154"
           style="fill:none;stroke:#000000;stroke-width:0.5pt;stroke-dasharray:none" />
        <g
           transform="translate(77.419,367.918)"
           id="g156">
          <g
             id="g158">
            <text
               x="0"
               y="0"
               font-size="9pt"
               id="text160"
               style="font-size:11.25px;text-anchor:middle;fill:#000000;font-family:Helvetica">-6</text>
          </g>
        </g>
        <g
           transform="translate(142.175,367.918)"
           id="g162">
          <g
             id="g164">
            <text
               x="0"
               y="0"
               font-size="9pt"
               id="text166"
               style="font-size:11.25px;text-anchor:middle;fill:#000000;font-family:Helvetica">-4</text>
          </g>
        </g>
        <g
           transform="translate(206.931,367.918)"
           id="g168">
          <g
             id="g170">
            <text
               x="0"
               y="0"
               font-size="9pt"
               id="text172"
               style="font-size:11.25px;text-anchor:middle;fill:#000000;font-family:Helvetica">-2</text>
          </g>
        </g>
        <g
           transform="translate(271.688,367.918)"
           id="g174">
          <g
             id="g176">
            <text
               x="0"
               y="0"
               font-size="9pt"
               id="text178"
               style="font-size:11.25px;text-anchor:middle;fill:#000000;font-family:Helvetica">0</text>
          </g>
        </g>
        <g
           transform="translate(336.444,367.918)"
           id="g180">
          <g
             id="g182">
            <text
               x="0"
               y="0"
               font-size="9pt"
               id="text184"
               style="font-size:11.25px;text-anchor:middle;fill:#000000;font-family:Helvetica">2</text>
          </g>
        </g>
        <g
           transform="translate(401.2,367.918)"
           id="g186">
          <g
             id="g188">
            <text
               x="0"
               y="0"
               font-size="9pt"
               id="text190"
               style="font-size:11.25px;text-anchor:middle;fill:#000000;font-family:Helvetica">4</text>
          </g>
        </g>
        <g
           transform="translate(465.956,367.918)"
           id="g192">
          <g
             id="g194">
            <text
               x="0"
               y="0"
               font-size="9pt"
               id="text196"
               style="font-size:11.25px;text-anchor:middle;fill:#000000;font-family:Helvetica">6</text>
          </g>
        </g>
        <polyline
           points="68.250,343.206 72.319,343.206 "
           id="polyline198"
           style="fill:none;stroke:#000000;stroke-width:0.5pt;stroke-dasharray:none" />
        <polyline
           points="68.250,292.132 72.319,292.132 "
           id="polyline200"
           style="fill:none;stroke:#000000;stroke-width:0.5pt;stroke-dasharray:none" />
        <polyline
           points="68.250,241.058 72.319,241.058 "
           id="polyline202"
           style="fill:none;stroke:#000000;stroke-width:0.5pt;stroke-dasharray:none" />
        <polyline
           points="68.250,189.984 72.319,189.984 "
           id="polyline204"
           style="fill:none;stroke:#000000;stroke-width:0.5pt;stroke-dasharray:none" />
        <polyline
           points="68.250,138.911 72.319,138.911 "
           id="polyline206"
           style="fill:none;stroke:#000000;stroke-width:0.5pt;stroke-dasharray:none" />
        <polyline
           points="68.250,87.837 72.319,87.837 "
           id="polyline208"
           style="fill:none;stroke:#000000;stroke-width:0.5pt;stroke-dasharray:none" />
        <polyline
           points="68.250,36.763 72.319,36.763 "
           id="polyline210"
           style="fill:none;stroke:#000000;stroke-width:0.5pt;stroke-dasharray:none" />
        <polyline
           points="68.250,350.438 68.250,29.531 "
           id="polyline212"
           style="fill:none;stroke:#000000;stroke-width:0.5pt;stroke-dasharray:none" />
        <polyline
           points="475.125,343.206 471.056,343.206 "
           id="polyline214"
           style="fill:none;stroke:#000000;stroke-width:0.5pt;stroke-dasharray:none" />
        <polyline
           points="475.125,292.132 471.056,292.132 "
           id="polyline216"
           style="fill:none;stroke:#000000;stroke-width:0.5pt;stroke-dasharray:none" />
        <polyline
           points="475.125,241.058 471.056,241.058 "
           id="polyline218"
           style="fill:none;stroke:#000000;stroke-width:0.5pt;stroke-dasharray:none" />
        <polyline
           points="475.125,189.984 471.056,189.984 "
           id="polyline220"
           style="fill:none;stroke:#000000;stroke-width:0.5pt;stroke-dasharray:none" />
        <polyline
           points="475.125,138.911 471.056,138.911 "
           id="polyline222"
           style="fill:none;stroke:#000000;stroke-width:0.5pt;stroke-dasharray:none" />
        <polyline
           points="475.125,87.837 471.056,87.837 "
           id="polyline224"
           style="fill:none;stroke:#000000;stroke-width:0.5pt;stroke-dasharray:none" />
        <polyline
           points="475.125,36.763 471.056,36.763 "
           id="polyline226"
           style="fill:none;stroke:#000000;stroke-width:0.5pt;stroke-dasharray:none" />
        <polyline
           points="475.125,350.438 475.125,29.531 "
           id="polyline228"
           style="fill:none;stroke:#000000;stroke-width:0.5pt;stroke-dasharray:none" />
        <g
           transform="translate(60.112,347.425)"
           id="g230">
          <g
             id="g232">
            <text
               x="0"
               y="0"
               font-size="9pt"
               id="text234"
               style="font-size:11.25px;text-anchor:end;fill:#000000;font-family:Helvetica">-6</text>
          </g>
        </g>
        <g
           transform="translate(60.113,296.351)"
           id="g236">
          <g
             id="g238">
            <text
               x="0"
               y="0"
               font-size="9pt"
               id="text240"
               style="font-size:11.25px;text-anchor:end;fill:#000000;font-family:Helvetica">-4</text>
          </g>
        </g>
        <g
           transform="translate(60.112,245.277)"
           id="g242">
          <g
             id="g244">
            <text
               x="0"
               y="0"
               font-size="9pt"
               id="text246"
               style="font-size:11.25px;text-anchor:end;fill:#000000;font-family:Helvetica">-2</text>
          </g>
        </g>
        <g
           transform="translate(60.112,194.203)"
           id="g248">
          <g
             id="g250">
            <text
               x="0"
               y="0"
               font-size="9pt"
               id="text252"
               style="font-size:11.25px;text-anchor:end;fill:#000000;font-family:Helvetica">0</text>
          </g>
        </g>
        <g
           transform="translate(60.112,143.129)"
           id="g254">
          <g
             id="g256">
            <text
               x="0"
               y="0"
               font-size="9pt"
               id="text258"
               style="font-size:11.25px;text-anchor:end;fill:#000000;font-family:Helvetica">2</text>
          </g>
        </g>
        <g
           transform="translate(60.112,92.055)"
           id="g260">
          <g
             id="g262">
            <text
               x="0"
               y="0"
               font-size="9pt"
               id="text264"
               style="font-size:11.25px;text-anchor:end;fill:#000000;font-family:Helvetica">4</text>
          </g>
        </g>
        <g
           transform="translate(60.112,40.982)"
           id="g266">
          <g
             id="g268">
            <text
               x="0"
               y="0"
               font-size="9pt"
               id="text270"
               style="font-size:11.25px;text-anchor:end;fill:#000000;font-family:Helvetica">6</text>
          </g>
        </g>
        <polyline
           points="68.250,350.438 68.250,347.228 "
           id="polyline272"
           style="fill:none;stroke:#000000;stroke-width:0.5pt;stroke-dasharray:none" />
        <polyline
           points="68.250,350.438 68.250,350.437 "
           id="polyline274"
           style="fill:none;stroke:#000000;stroke-width:0.5pt;stroke-dasharray:none" />
      </g>
    </g>
    <g
       id="ID000033">
      <clipPath
         id="ID000034">
        <rect
           x="0"
           y="0"
           width="525"
           height="393.75"
           id="rect278" />
      </clipPath>
      <g
         id="g280">
        <g
           id="ID000035"
           clip-path="url(#ID000034)">
          <g
             id="ID000036"
             clip-path="url(#ID000034)">
            <polyline
               points="163.953,75.659 185.075,110.989 "
               id="polyline284"
               style="fill:none;stroke:#000000;stroke-width:0.5pt;stroke-dasharray:none" />
            <g
               id="g286" />
          </g>
          <g
             id="ID000037"
             clip-path="url(#ID000034)">
            <polygon
               points="186.853,104.828 189.244,117.962 185.075,110.989 "
               id="polygon289"
               style="fill:#000000;fill-opacity:1;stroke:#000000;stroke-width:0.5pt;stroke-opacity:1;stroke-dasharray:none" />
            <polygon
               points="189.244,117.962 178.807,109.639 185.075,110.989 "
               id="polygon291"
               style="fill:#000000;fill-opacity:1;stroke:#000000;stroke-width:0.5pt;stroke-opacity:1;stroke-dasharray:none" />
          </g>
        </g>
        <g
           id="ID000038"
           clip-path="url(#ID000034)">
          <g
             id="ID000039"
             clip-path="url(#ID000034)">
            <polyline
               points="173.547,74.032 226.435,130.732 "
               id="polyline295"
               style="fill:none;stroke:#000000;stroke-width:0.5pt;stroke-dasharray:none" />
            <g
               id="g297" />
          </g>
          <g
             id="ID000040"
             clip-path="url(#ID000034)">
            <polygon
               points="226.878,124.335 231.977,136.674 226.435,130.732 "
               id="polygon300"
               style="fill:#000000;fill-opacity:1;stroke:#000000;stroke-width:0.5pt;stroke-opacity:1;stroke-dasharray:none" />
            <polygon
               points="231.977,136.674 220.023,130.73 226.435,130.732 "
               id="polygon302"
               style="fill:#000000;fill-opacity:1;stroke:#000000;stroke-width:0.5pt;stroke-opacity:1;stroke-dasharray:none" />
          </g>
        </g>
        <g
           id="ID000041"
           clip-path="url(#ID000034)">
          <g
             id="ID000042"
             clip-path="url(#ID000034)">
            <polyline
               points="156.977,78.099 163.509,94.165 "
               id="polyline306"
               style="fill:none;stroke:#000000;stroke-width:0.5pt;stroke-dasharray:none" />
            <g
               id="g308" />
          </g>
          <g
             id="ID000043"
             clip-path="url(#ID000034)">
            <polygon
               points="166.204,88.347 166.57,101.692 163.509,94.165 "
               id="polygon311"
               style="fill:#000000;fill-opacity:1;stroke:#000000;stroke-width:0.5pt;stroke-opacity:1;stroke-dasharray:none" />
            <polygon
               points="166.57,101.692 157.519,91.878 163.509,94.165 "
               id="polygon313"
               style="fill:#000000;fill-opacity:1;stroke:#000000;stroke-width:0.5pt;stroke-opacity:1;stroke-dasharray:none" />
          </g>
        </g>
        <g
           id="ID000044"
           clip-path="url(#ID000034)">
          <g
             clip-path="url(#ID000034)"
             id="ID000045" />
          <g
             id="ID000046">
            <g
               transform="translate(112.031,72.375)"
               id="g318">
              <g
                 id="g320">
                <text
                   x="0"
                   y="0"
                   font-size="14pt"
                   id="text322"
                   style="font-size:17.5px;text-anchor:start;fill:#000000;font-family:Helvetica">level sets</text>
              </g>
            </g>
          </g>
        </g>
        <g
           id="ID000047"
           clip-path="url(#ID000034)">
          <g
             id="ID000048"
             clip-path="url(#ID000034)">
            <polyline
               points="343.605,289.618 325.227,306.149 "
               id="polyline326"
               style="fill:none;stroke:#000000;stroke-width:0.5pt;stroke-dasharray:none" />
            <g
               id="g328" />
          </g>
          <g
             id="ID000049"
             clip-path="url(#ID000034)">
            <polygon
               points="319.186,311.583 325.344,299.738 325.227,306.149 "
               id="polygon331"
               style="fill:#000000;fill-opacity:1;stroke:#000000;stroke-width:0.5pt;stroke-opacity:1;stroke-dasharray:none" />
            <polygon
               points="331.614,306.708 319.186,311.583 325.227,306.149 "
               id="polygon333"
               style="fill:#000000;fill-opacity:1;stroke:#000000;stroke-width:0.5pt;stroke-opacity:1;stroke-dasharray:none" />
          </g>
          <g
             id="ID000050">
            <g
               transform="translate(343.605,286.102)"
               id="g336">
              <g
                 id="g338">
                <text
                   x="0"
                   y="0"
                   font-size="14pt"
                   id="text340"
                   style="font-size:17.5px;text-anchor:start;fill:#000000;font-family:Helvetica">constraint 2</text>
              </g>
            </g>
          </g>
        </g>
        <g
           id="ID000051"
           clip-path="url(#ID000034)">
          <g
             id="ID000052"
             clip-path="url(#ID000034)">
            <polyline
               points="375.000,144.809 354.552,130.041 "
               id="polyline344"
               style="fill:none;stroke:#000000;stroke-width:0.5pt;stroke-dasharray:none" />
            <g
               id="g346" />
          </g>
          <g
             id="ID000053"
             clip-path="url(#ID000034)">
            <polygon
               points="347.965,125.284 360.843,128.803 354.552,130.041 "
               id="polygon349"
               style="fill:#000000;fill-opacity:1;stroke:#000000;stroke-width:0.5pt;stroke-opacity:1;stroke-dasharray:none" />
            <polygon
               points="355.354,136.403 347.965,125.284 354.552,130.041 "
               id="polygon351"
               style="fill:#000000;fill-opacity:1;stroke:#000000;stroke-width:0.5pt;stroke-opacity:1;stroke-dasharray:none" />
          </g>
          <g
             id="ID000054">
            <g
               transform="translate(375,161.403)"
               id="g354">
              <g
                 id="g356">
                <text
                   x="0"
                   y="0"
                   font-size="14pt"
                   id="text358"
                   style="font-size:17.5px;text-anchor:start;fill:#000000;font-family:Helvetica">constraint 1</text>
              </g>
            </g>
          </g>
        </g>
      </g>
    </g>
  </g>
</svg>
